<?xml version="1.0" encoding="utf-8"?>
<!-- Generator: Adobe Illustrator 22.1.0, SVG Export Plug-In . SVG Version: 6.00 Build 0)  -->
<svg version="1.1" id="Layer_1" xmlns="http://www.w3.org/2000/svg" xmlns:xlink="http://www.w3.org/1999/xlink" x="0px" y="0px"
	 viewBox="0 0 608 608" style="enable-background:new 0 0 608 608;" xml:space="preserve">
<style type="text/css">
	.st0{fill:#6FC067;}
	.st1{fill-rule:evenodd;clip-rule:evenodd;fill:none;}
</style>
<path class="st0" d="M207.2,217.1c3.2-4.4,8.6-13.2,17.8-17.1c10.7-4.6,25.6-3.7,32,1c5.4-5.9,18.8-15.6,25-24
	c8.2-11.1,14.6-27.5,24-39c8.4-10.3,18.8-14.5,26-24c8.3-11,8.1-25.2,10-36c6.7-2.3,18.3-6.7,25-9c11.3,3.9,22.6,7.8,33.9,11.7
	c22.2-3.9,37.6-11.4,55.4,7.9c34,36.7,10.8,95.4-7.4,119.5s-21.3,10.8-32,24c-9.1,11.2-7.1,6.3-9,19c-2.6,17.8,10.7,39.2,36,63
	c9.2,5.4,11.8,14.6,21,20c1.7-0.5,15.2,0,21-9c4.6-7.1,7.9-27.1,11-32c6.9-11,11-14,11-14c-0.8,16.3-1.6,32.7-2.4,49
	c6.6,2.3,19.5,1.9,20.4,5c0.4,1.4-6.4,3.2-9,7c-4.2,2.4-14.9,6.8-22,14c-11.6,11.8-15.4,27.6-23,23c-4.7-1.7-9.7-10.3-23-14
	c-16.3-4.6-46-5-46-5c10.6-0.4,23-3.2,24.5-15.1c1.3-13.5-17.3-38.1-30.5-24.9c0,0-9.4,40.3-21,61c-16.5,29.6-37,43-37,43
	c18.8,18,29.1,35.1,25.5,49.7c-6.6,26.7-60.8,33.9-59.5,44.3c0.3,2.7,4.2,4.7,9,6c9.5,2.7,36.6,2.8,52,0c15.6-2.9,28.3-2.3,39-3
	c11.8-0.8,21.2-2.8,33-5c7.2,7.2,27.1,20.1,7,18.8c-6.2-0.4-45-2.2-38.2,7.2c4.2,6.3,31.3,20,14.2,18.9c-12.9-0.6-29.1-14.4-42-15
	c-10.4-0.5-28.9-0.2-34,3s-25,9.3-32,9c-9.6,0.4-21.8,1-29-3s-12.8-6.2-14-7c-13.8-8.6-13.8-3.6-27-15
	c-11.9-10.2-16.4-20.6-16.5-25.9c-0.4-15.8,16-33.8,47.5-43.1c-1.1-2.8,1.3-9.5-11-11c-12.3-1.5-30.8-4.6-39-8
	c-16.6-6.9-8.1-21.1-20-19c-14.2,2.6-33.3-8.9-39.3-13.8c-4.9-4.1-9.8-8.1-14.6-12.2c-1.4,2.7-2.9,5.3-4.3,8
	c1.4,10.6,6.1,32.6-4.8,38.9c-10.2,5.9-20.4,7.8-27.1,6.2C101,448,84.3,425.3,71,383c-4-12.7-7.3-25.6-10.1-38.8
	c9,3.2,20,15.9,23.1,2.5c2.3-14.3,4.6-28.5,7-42.8c3.7,2,7.3,4,11,6c-2.9,12.1-3.7,23,1.4,26.3c4.9,3.2,11.6-3.2,23.6-7.3
	c13.5-4.6,30.3-1.7,41-2.1c5-0.2,8.7-1.1,10-3.9c0.7-1.5,8.1-17.3,8-18c-1.1-13,11.7-37.7,28-67
	C209.2,242.8,202.4,223.7,207.2,217.1z"/>
<path class="st1" d="M466,553"/>
</svg>
